{
	"asset":{
		"generator":"Khronos glTF Blender I/O v4.0.44",
		"version":"2.0"
	},
	"scene":0,
	"scenes":[
		{
			"name":"Scene",
			"nodes":[
				0
			]
		}
	],
	"nodes":[
		{
			"mesh":0,
			"name":"Box009_1001.001"
		}
	],
	"materials":[
		{
			"name":"1001.001",
			"occlusionTexture":{
				"index":0
			},
			"pbrMetallicRoughness":{
				"metallicRoughnessTexture":{
					"index":0
				}
			}
		}
	],
	"meshes":[
		{
			"name":"Box009_1001.001",
			"primitives":[
				{
					"attributes":{
						"POSITION":0,
						"NORMAL":1,
						"TEXCOORD_0":2,
						"TANGENT":3
					},
					"indices":4,
					"material":0
				}
			]
		}
	],
	"textures":[
		{
			"sampler":0,
			"source":0
		}
	],
	"images":[
		{
			"mimeType":"image/png",
			"name":"1001_OcclusionRoughnessMetallic",
			"uri":"1001_OcclusionRoughnessMetallic.png"
		}
	],
	"accessors":[
		{
			"bufferView":0,
			"componentType":5126,
			"count":11542,
			"max":[
				0.6027021408081055,
				1,
				0.603671133518219
			],
			"min":[
				-0.6027021408081055,
				-1,
				-0.6036709547042847
			],
			"type":"VEC3"
		},
		{
			"bufferView":1,
			"componentType":5126,
			"count":11542,
			"type":"VEC3"
		},
		{
			"bufferView":2,
			"componentType":5126,
			"count":11542,
			"type":"VEC2"
		},
		{
			"bufferView":3,
			"componentType":5126,
			"count":11542,
			"type":"VEC4"
		},
		{
			"bufferView":4,
			"componentType":5123,
			"count":60510,
			"type":"SCALAR"
		}
	],
	"bufferViews":[
		{
			"buffer":0,
			"byteLength":138504,
			"byteOffset":0,
			"target":34962
		},
		{
			"buffer":0,
			"byteLength":138504,
			"byteOffset":138504,
			"target":34962
		},
		{
			"buffer":0,
			"byteLength":92336,
			"byteOffset":277008,
			"target":34962
		},
		{
			"buffer":0,
			"byteLength":184672,
			"byteOffset":369344,
			"target":34962
		},
		{
			"buffer":0,
			"byteLength":121020,
			"byteOffset":554016,
			"target":34963
		}
	],
	"samplers":[
		{
			"magFilter":9729,
			"minFilter":9987
		}
	],
	"buffers":[
		{
			"byteLength":675036,
			"uri":"lamp.bin"
		}
	]
}
