{
	"asset":{
		"generator":"Khronos glTF Blender I/O v4.0.44",
		"version":"2.0"
	},
	"scene":0,
	"scenes":[
		{
			"name":"Scene",
			"nodes":[
				0
			]
		}
	],
	"nodes":[
		{
			"mesh":0,
			"name":"watch",
			"rotation":[
				-0.70710688829422,
				0,
				0,
				0.7071066498756409
			],
			"translation":[
				0,
				0,
				0.7212324142456055
			]
		}
	],
	"materials":[
		{
			"doubleSided":true,
			"name":"metal",
			"pbrMetallicRoughness":{
				"baseColorFactor":[
					0.11630232632160187,
					0.19206292927265167,
					0.8000000715255737,
					1
				],
				"roughnessFactor":0.4000000059604645
			}
		},
		{
			"alphaMode":"BLEND",
			"doubleSided":true,
			"name":"glass",
			"pbrMetallicRoughness":{
				"baseColorFactor":[
					0.800000011920929,
					0.800000011920929,
					0.800000011920929,
					0.15602834522724152
				],
				"metallicFactor":0,
				"roughnessFactor":0
			}
		},
		{
			"doubleSided":true,
			"name":"screen cover",
			"pbrMetallicRoughness":{
				"baseColorFactor":[
					0,
					0,
					0,
					1
				],
				"metallicFactor":0,
				"roughnessFactor":0
			}
		},
		{
			"doubleSided":true,
			"emissiveFactor":[
				1,
				1,
				1
			],
			"emissiveTexture":{
				"index":0
			},
			"name":"screen",
			"pbrMetallicRoughness":{}
		},
		{
			"doubleSided":true,
			"name":"black metal.button",
			"pbrMetallicRoughness":{
				"baseColorFactor":[
					0.800000011920929,
					0.800000011920929,
					0.800000011920929,
					1
				],
				"metallicFactor":0,
				"roughnessFactor":0.5
			}
		},
		{
			"doubleSided":true,
			"name":"red line",
			"pbrMetallicRoughness":{
				"baseColorFactor":[
					1,
					0.0032316327560693026,
					0,
					1
				],
				"roughnessFactor":0.5
			}
		},
		{
			"doubleSided":true,
			"name":"plastic",
			"pbrMetallicRoughness":{
				"baseColorFactor":[
					0.026309985667467117,
					0.041024260222911835,
					0.15232543647289276,
					1
				],
				"metallicFactor":0,
				"roughnessFactor":0.5843971967697144
			}
		}
	],
	"meshes":[
		{
			"name":"Plane.002",
			"primitives":[
				{
					"attributes":{
						"POSITION":0,
						"NORMAL":1,
						"TEXCOORD_0":2,
						"TANGENT":3
					},
					"indices":4,
					"material":0
				},
				{
					"attributes":{
						"POSITION":5,
						"NORMAL":6,
						"TEXCOORD_0":7,
						"TANGENT":8
					},
					"indices":9,
					"material":1
				},
				{
					"attributes":{
						"POSITION":10,
						"NORMAL":11,
						"TEXCOORD_0":12,
						"TANGENT":13
					},
					"indices":14,
					"material":2
				},
				{
					"attributes":{
						"POSITION":15,
						"NORMAL":16,
						"TEXCOORD_0":17,
						"TANGENT":18
					},
					"indices":19,
					"material":3
				},
				{
					"attributes":{
						"POSITION":20,
						"NORMAL":21,
						"TEXCOORD_0":22,
						"TANGENT":23
					},
					"indices":24,
					"material":4
				},
				{
					"attributes":{
						"POSITION":25,
						"NORMAL":26,
						"TEXCOORD_0":27,
						"TANGENT":28
					},
					"indices":29,
					"material":5
				},
				{
					"attributes":{
						"POSITION":30,
						"NORMAL":31,
						"TEXCOORD_0":32,
						"TANGENT":33
					},
					"indices":34,
					"material":6
				}
			]
		}
	],
	"textures":[
		{
			"sampler":0,
			"source":0
		}
	],
	"images":[
		{
			"mimeType":"image/jpeg",
			"name":"images (6)",
			"uri":"images%206.jpg"
		}
	],
	"accessors":[
		{
			"bufferView":0,
			"componentType":5126,
			"count":9066,
			"max":[
				0.48054981231689453,
				0.2806936800479889,
				0.5543267130851746
			],
			"min":[
				-0.46055886149406433,
				0.036101359874010086,
				-0.5418909788131714
			],
			"type":"VEC3"
		},
		{
			"bufferView":1,
			"componentType":5126,
			"count":9066,
			"type":"VEC3"
		},
		{
			"bufferView":2,
			"componentType":5126,
			"count":9066,
			"type":"VEC2"
		},
		{
			"bufferView":3,
			"componentType":5126,
			"count":9066,
			"type":"VEC4"
		},
		{
			"bufferView":4,
			"componentType":5123,
			"count":25893,
			"type":"SCALAR"
		},
		{
			"bufferView":5,
			"componentType":5126,
			"count":91,
			"max":[
				0.3213300108909607,
				-3.80110439651693e-12,
				0.4147270917892456
			],
			"min":[
				-0.3213300108909607,
				-5.403617553412232e-10,
				-0.4026637673377991
			],
			"type":"VEC3"
		},
		{
			"bufferView":6,
			"componentType":5126,
			"count":91,
			"type":"VEC3"
		},
		{
			"bufferView":7,
			"componentType":5126,
			"count":91,
			"type":"VEC2"
		},
		{
			"bufferView":8,
			"componentType":5126,
			"count":91,
			"type":"VEC4"
		},
		{
			"bufferView":9,
			"componentType":5123,
			"count":267,
			"type":"SCALAR"
		},
		{
			"bufferView":10,
			"componentType":5126,
			"count":543,
			"max":[
				0.424795925617218,
				0.04606601595878601,
				0.5185654759407043
			],
			"min":[
				-0.424795925617218,
				-1.3487697625436113e-09,
				-0.5061297416687012
			],
			"type":"VEC3"
		},
		{
			"bufferView":11,
			"componentType":5126,
			"count":543,
			"type":"VEC3"
		},
		{
			"bufferView":12,
			"componentType":5126,
			"count":543,
			"type":"VEC2"
		},
		{
			"bufferView":13,
			"componentType":5126,
			"count":543,
			"type":"VEC4"
		},
		{
			"bufferView":14,
			"componentType":5123,
			"count":2874,
			"type":"SCALAR"
		},
		{
			"bufferView":15,
			"componentType":5126,
			"count":96,
			"max":[
				0.3213300108909607,
				0.0028425652999430895,
				0.4147389531135559
			],
			"min":[
				-0.3213300108909607,
				0.002842564834281802,
				-0.4026637673377991
			],
			"type":"VEC3"
		},
		{
			"bufferView":16,
			"componentType":5126,
			"count":96,
			"type":"VEC3"
		},
		{
			"bufferView":17,
			"componentType":5126,
			"count":96,
			"type":"VEC2"
		},
		{
			"bufferView":18,
			"componentType":5126,
			"count":96,
			"type":"VEC4"
		},
		{
			"bufferView":19,
			"componentType":5123,
			"count":192,
			"type":"SCALAR"
		},
		{
			"bufferView":20,
			"componentType":5126,
			"count":3030,
			"max":[
				0.48051363229751587,
				0.33702725172042847,
				0.3287207782268524
			],
			"min":[
				-0.45060279965400696,
				0.05218488350510597,
				-0.31125977635383606
			],
			"type":"VEC3"
		},
		{
			"bufferView":21,
			"componentType":5126,
			"count":3030,
			"type":"VEC3"
		},
		{
			"bufferView":22,
			"componentType":5126,
			"count":3030,
			"type":"VEC2"
		},
		{
			"bufferView":23,
			"componentType":5126,
			"count":3030,
			"type":"VEC4"
		},
		{
			"bufferView":24,
			"componentType":5123,
			"count":4776,
			"type":"SCALAR"
		},
		{
			"bufferView":25,
			"componentType":5126,
			"count":126,
			"max":[
				0.48051363229751587,
				0.1937950998544693,
				0.2766842544078827
			],
			"min":[
				0.4805136024951935,
				0.053556378930807114,
				0.13672223687171936
			],
			"type":"VEC3"
		},
		{
			"bufferView":26,
			"componentType":5126,
			"count":126,
			"type":"VEC3"
		},
		{
			"bufferView":27,
			"componentType":5126,
			"count":126,
			"type":"VEC2"
		},
		{
			"bufferView":28,
			"componentType":5126,
			"count":126,
			"type":"VEC4"
		},
		{
			"bufferView":29,
			"componentType":5123,
			"count":300,
			"type":"SCALAR"
		},
		{
			"bufferView":30,
			"componentType":5126,
			"count":5144,
			"max":[
				0.4329759478569031,
				1.5363937616348267,
				0.8813347220420837
			],
			"min":[
				-0.43067851662635803,
				0.09379325062036514,
				-0.8803512454032898
			],
			"type":"VEC3"
		},
		{
			"bufferView":31,
			"componentType":5126,
			"count":5144,
			"type":"VEC3"
		},
		{
			"bufferView":32,
			"componentType":5126,
			"count":5144,
			"type":"VEC2"
		},
		{
			"bufferView":33,
			"componentType":5126,
			"count":5144,
			"type":"VEC4"
		},
		{
			"bufferView":34,
			"componentType":5123,
			"count":27111,
			"type":"SCALAR"
		}
	],
	"bufferViews":[
		{
			"buffer":0,
			"byteLength":108792,
			"byteOffset":0,
			"target":34962
		},
		{
			"buffer":0,
			"byteLength":108792,
			"byteOffset":108792,
			"target":34962
		},
		{
			"buffer":0,
			"byteLength":72528,
			"byteOffset":217584,
			"target":34962
		},
		{
			"buffer":0,
			"byteLength":145056,
			"byteOffset":290112,
			"target":34962
		},
		{
			"buffer":0,
			"byteLength":51786,
			"byteOffset":435168,
			"target":34963
		},
		{
			"buffer":0,
			"byteLength":1092,
			"byteOffset":486956,
			"target":34962
		},
		{
			"buffer":0,
			"byteLength":1092,
			"byteOffset":488048,
			"target":34962
		},
		{
			"buffer":0,
			"byteLength":728,
			"byteOffset":489140,
			"target":34962
		},
		{
			"buffer":0,
			"byteLength":1456,
			"byteOffset":489868,
			"target":34962
		},
		{
			"buffer":0,
			"byteLength":534,
			"byteOffset":491324,
			"target":34963
		},
		{
			"buffer":0,
			"byteLength":6516,
			"byteOffset":491860,
			"target":34962
		},
		{
			"buffer":0,
			"byteLength":6516,
			"byteOffset":498376,
			"target":34962
		},
		{
			"buffer":0,
			"byteLength":4344,
			"byteOffset":504892,
			"target":34962
		},
		{
			"buffer":0,
			"byteLength":8688,
			"byteOffset":509236,
			"target":34962
		},
		{
			"buffer":0,
			"byteLength":5748,
			"byteOffset":517924,
			"target":34963
		},
		{
			"buffer":0,
			"byteLength":1152,
			"byteOffset":523672,
			"target":34962
		},
		{
			"buffer":0,
			"byteLength":1152,
			"byteOffset":524824,
			"target":34962
		},
		{
			"buffer":0,
			"byteLength":768,
			"byteOffset":525976,
			"target":34962
		},
		{
			"buffer":0,
			"byteLength":1536,
			"byteOffset":526744,
			"target":34962
		},
		{
			"buffer":0,
			"byteLength":384,
			"byteOffset":528280,
			"target":34963
		},
		{
			"buffer":0,
			"byteLength":36360,
			"byteOffset":528664,
			"target":34962
		},
		{
			"buffer":0,
			"byteLength":36360,
			"byteOffset":565024,
			"target":34962
		},
		{
			"buffer":0,
			"byteLength":24240,
			"byteOffset":601384,
			"target":34962
		},
		{
			"buffer":0,
			"byteLength":48480,
			"byteOffset":625624,
			"target":34962
		},
		{
			"buffer":0,
			"byteLength":9552,
			"byteOffset":674104,
			"target":34963
		},
		{
			"buffer":0,
			"byteLength":1512,
			"byteOffset":683656,
			"target":34962
		},
		{
			"buffer":0,
			"byteLength":1512,
			"byteOffset":685168,
			"target":34962
		},
		{
			"buffer":0,
			"byteLength":1008,
			"byteOffset":686680,
			"target":34962
		},
		{
			"buffer":0,
			"byteLength":2016,
			"byteOffset":687688,
			"target":34962
		},
		{
			"buffer":0,
			"byteLength":600,
			"byteOffset":689704,
			"target":34963
		},
		{
			"buffer":0,
			"byteLength":61728,
			"byteOffset":690304,
			"target":34962
		},
		{
			"buffer":0,
			"byteLength":61728,
			"byteOffset":752032,
			"target":34962
		},
		{
			"buffer":0,
			"byteLength":41152,
			"byteOffset":813760,
			"target":34962
		},
		{
			"buffer":0,
			"byteLength":82304,
			"byteOffset":854912,
			"target":34962
		},
		{
			"buffer":0,
			"byteLength":54222,
			"byteOffset":937216,
			"target":34963
		}
	],
	"samplers":[
		{
			"magFilter":9729,
			"minFilter":9987
		}
	],
	"buffers":[
		{
			"byteLength":991440,
			"uri":"watch.bin"
		}
	]
}
